<?xml version="1.0" encoding="UTF-8"?>
<svg width="183px" height="49px" viewBox="0 0 183 49" version="1.1" xmlns="http://www.w3.org/2000/svg" xmlns:xlink="http://www.w3.org/1999/xlink">
    <!-- Generator: Sketch 58 (84663) - https://sketch.com -->
    <title>Hauper Logo</title>
    <desc>Created with Sketch.</desc>
    <defs>
        <polygon id="path-1" points="0.321200053 20.7584009 22.1696009 23.903001 32.0066013 43.1288018 38.4560016 0.368000054"></polygon>
    </defs>
    <g id="Hauper-Logo" stroke="none" stroke-width="1" fill="none" fill-rule="evenodd">
        <g id="Group-41" transform="translate(13.000000, 4.000000)">
            <g id="Group-40">
                <polygon id="Fill-2" fill="#005175" points="16.9725607 28.2746612 16.9725607 18.8606608 6.93576028 18.8606608 6.93576028 28.2746612 0.776160031 28.2746612 0.776160031 4.0502602 6.93576028 4.0502602 6.93576028 14.0168606 16.9725607 14.0168606 16.9725607 4.0502602 23.1321609 4.0502602 23.1321609 28.2746612"></polygon>
                <g id="Group-13" transform="translate(17.200001, 0.057600)">
                    <path d="M62.1978225,18.0427408 C62.1978225,24.445341 57.9426223,28.4953412 51.1584221,28.4953412 C44.3400218,28.4953412 39.9804216,24.445341 39.9804216,18.0427408 L39.9804216,3.9919402 L46.1400219,3.9919402 L46.1400219,18.0427408 C46.1400219,21.3295409 48.251422,23.336541 51.1944221,23.336541 C54.0996222,23.336541 56.0742223,21.3295409 56.0742223,18.0427408 L56.0742223,3.9919402 L62.1978225,3.9919402 L62.1978225,18.0427408 Z" id="Fill-3" fill="#005175"></path>
                    <path d="M74.170163,16.5539607 L78.2543631,16.5539607 C80.9525633,16.5539607 82.5095633,15.2057606 82.5095633,12.6443605 C82.5095633,10.1171604 80.9525633,8.83736039 78.2543631,8.83736039 L74.170163,8.83736039 L74.170163,16.5539607 Z M78.5639632,3.9917602 C84.7595634,3.9917602 88.3235635,7.03736032 88.3235635,12.4355605 C88.3235635,18.1109608 84.7595634,21.3995609 78.5639632,21.3995609 L74.170163,21.3995609 L74.170163,28.2179612 L68.0087627,28.2179612 L68.0087627,3.9917602 L78.5639632,3.9917602 Z" id="Fill-5" fill="#005175"></path>
                    <polygon id="Fill-7" fill="#005175" points="99.085404 8.83718039 99.085404 13.6485806 110.643204 13.6485806 110.643204 18.4923808 99.085404 18.4923808 99.085404 23.372181 112.268605 23.372181 112.268605 28.2177812 92.9240037 28.2177812 92.9240037 3.9933802 111.888804 3.9933802 111.888804 8.83718039"></polygon>
                    <path d="M128.462125,16.5539607 C131.126125,16.5539607 132.684925,15.2057606 132.684925,12.6443605 C132.684925,10.1171604 131.126125,8.83736039 128.462125,8.83736039 L123.789325,8.83736039 L123.789325,16.5539607 L128.462125,16.5539607 Z M128.636725,21.3995609 L128.462125,21.3995609 L123.789325,21.3995609 L123.789325,28.2179612 L117.629725,28.2179612 L117.629725,3.9917602 L128.462125,3.9917602 C134.864725,3.9917602 138.533126,7.03736032 138.533126,12.4355605 C138.533126,16.1399607 136.974325,18.8039608 134.137525,20.2223608 L139.224326,28.2179612 L132.234925,28.2179612 L128.636725,21.3995609 Z" id="Fill-9" fill="#005175"></path>
                    <polygon id="Fill-11" fill="#D50000" points="0.321020052 20.7585809 22.1676209 23.904981 32.0064213 43.1289818 38.4576216 0.368180054"></polygon>
                </g>
                <g id="Group-16" transform="translate(17.200001, 0.057600)">
                    <mask id="mask-2" fill="white">
                        <use xlink:href="#path-1"></use>
                    </mask>
                    <g id="Clip-15"></g>
                    <polygon id="Fill-14" fill="#B40000" mask="url(#mask-2)" points="43.5122018 -6.78538023 19.3886008 28.2174212 28.8512012 53.4354222 41.9408017 50.292622"></polygon>
                </g>
                <g id="Group-39" transform="translate(57.600002, 33.257601)" fill="#D50000">
                    <polygon id="Fill-17" points="4.08780016 1.68084007 4.08780016 8.10864032 2.81160011 8.10864032 2.81160011 1.68084007 0.419400017 1.68084007 0.419400017 0.534240021 6.49080026 0.534240021 6.49080026 1.68084007"></polygon>
                    <polygon id="Fill-19" points="9.9414004 1.68084007 9.9414004 3.72744015 13.6422005 3.72744015 13.6422005 4.87224019 9.9414004 4.87224019 9.9414004 6.96204028 14.2038006 6.96204028 14.2038006 8.10864032 8.66340034 8.10864032 8.66340034 0.534240021 14.0760006 0.534240021 14.0760006 1.68084007"></polygon>
                    <path d="M23.0774409,1.67040007 L22.3322409,2.6010001 C21.7796409,2.00700008 20.9894408,1.63800007 20.2208408,1.63800007 C18.7052407,1.63800007 17.5154407,2.80620011 17.5154407,4.30020017 C17.5154407,5.79420023 18.7052407,6.97320028 20.2208408,6.97320028 C20.9786408,6.97320028 21.7580409,6.62760026 22.3322409,6.07500024 L23.0900409,6.91920027 C22.3196409,7.67700031 21.2288408,8.16300032 20.1560408,8.16300032 C17.9384407,8.16300032 16.2158406,6.48720026 16.2158406,4.31100017 C16.2158406,2.15820009 17.9582407,0.50220002 20.1992408,0.50220002 C21.2702408,0.50220002 22.3430409,0.946800038 23.0774409,1.67040007" id="Fill-21"></path>
                    <polygon id="Fill-23" points="30.7591212 8.10918032 30.7591212 4.9717802 26.7451211 4.9717802 26.7451211 8.10918032 25.467121 8.10918032 25.467121 0.534780021 26.7451211 0.534780021 26.7451211 3.82338015 30.7591212 3.82338015 30.7591212 0.534780021 32.0353213 0.534780021 32.0353213 8.10918032"></polygon>
                    <polygon id="Fill-25" points="40.4200816 8.10918032 36.3844814 2.67678011 36.3844814 8.10918032 35.1064814 8.10918032 35.1064814 0.534780021 36.3610814 0.534780021 40.4200816 5.97618024 40.4200816 0.534780021 41.6746817 0.534780021 41.6746817 8.10918032"></polygon>
                    <path d="M45.4298418,4.32108017 C45.4298418,5.82588023 46.6736419,7.01568028 48.1568419,7.01568028 C49.640042,7.01568028 50.851442,5.82588023 50.851442,4.32108017 C50.851442,2.81808011 49.640042,1.64988007 48.1568419,1.64988007 C46.6646419,1.64988007 45.4298418,2.81808011 45.4298418,4.32108017 M52.1600421,4.32108017 C52.1600421,6.48648026 50.408642,8.16408032 48.1460419,8.16408032 C45.8852418,8.16408032 44.1302418,6.48648026 44.1302418,4.32108017 C44.1302418,2.14668009 45.8852418,0.50148002 48.1460419,0.50148002 C50.408642,0.50148002 52.1600421,2.15748009 52.1600421,4.32108017" id="Fill-27"></path>
                    <polygon id="Fill-29" points="59.1600624 6.95088028 59.1600624 8.11008032 54.6042622 8.11008032 54.6042622 0.535680021 55.8822622 0.535680021 55.8822622 6.95088028"></polygon>
                    <path d="M62.1343825,4.32108017 C62.1343825,5.82588023 63.3781825,7.01568028 64.8613826,7.01568028 C66.3445826,7.01568028 67.5559827,5.82588023 67.5559827,4.32108017 C67.5559827,2.81808011 66.3445826,1.64988007 64.8613826,1.64988007 C63.3691825,1.64988007 62.1343825,2.81808011 62.1343825,4.32108017 M68.8645827,4.32108017 C68.8645827,6.48648026 67.1131827,8.16408032 64.8505826,8.16408032 C62.5897825,8.16408032 60.8347824,6.48648026 60.8347824,4.32108017 C60.8347824,2.14668009 62.5897825,0.50148002 64.8505826,0.50148002 C67.1131827,0.50148002 68.8645827,2.15748009 68.8645827,4.32108017" id="Fill-31"></path>
                    <path d="M77.3042431,4.38624017 L77.3042431,7.17984029 C76.535643,7.76304031 75.399843,8.16444032 74.361243,8.16444032 C72.1202429,8.16444032 70.3778428,6.48684026 70.3778428,4.32144017 C70.3778428,2.15784009 72.1436429,0.50184002 74.436843,0.50184002 C75.520443,0.50184002 76.600443,0.912240036 77.3474431,1.56204006 L76.622043,2.5034401 C76.038843,1.96164008 75.227043,1.63944007 74.436843,1.63944007 C72.8906429,1.63944007 71.6774428,2.81844011 71.6774428,4.32144017 C71.6774428,5.83704023 72.9014429,7.01604028 74.447643,7.01604028 C75.011043,7.01604028 75.648243,6.82164027 76.190043,6.49764026 L76.190043,4.38624017 L77.3042431,4.38624017 Z" id="Fill-33"></path>
                    <polygon id="Fill-35" points="80.1900032 8.10900032 81.4680032 8.10900032 81.4680032 0.534600021 80.1900032 0.534600021"></polygon>
                    <polygon id="Fill-37" points="85.8191434 1.68084007 85.8191434 3.72744015 89.5199436 3.72744015 89.5199436 4.87224019 85.8191434 4.87224019 85.8191434 6.96204028 90.0815436 6.96204028 90.0815436 8.10864032 84.5411434 8.10864032 84.5411434 0.534240021 89.9537436 0.534240021 89.9537436 1.68084007"></polygon>
                    <path d="M97.8618639,1.25892005 L97.3308639,2.38392009 C96.5082638,1.88712007 95.6856638,1.68012007 95.1132638,1.68012007 C94.3662637,1.68012007 93.8784637,1.96272008 93.8784637,2.4721201 C93.8784637,4.12632016 97.9698639,3.24072013 97.9590852,5.96592024 C97.9590852,7.31952029 96.7692638,8.15292032 95.1024638,8.15292032 C93.9126637,8.15292032 92.7858637,7.6669203 92.0064637,6.95052028 L92.5590637,5.84712023 C93.3366637,6.56172026 94.3104637,6.95052028 95.1240638,6.95052028 C96.0114638,6.95052028 96.5424638,6.61572026 96.5424638,6.03072024 C96.5424638,4.34412017 92.4492637,5.28372021 92.4492637,2.5891201 C92.4492637,1.29312005 93.5652637,0.479520019 95.2086638,0.479520019 C96.1950638,0.479520019 97.1562639,0.792720032 97.8618639,1.25892005" id="Fill-38"></path>
                </g>
            </g>
        </g>
    </g>
</svg>